<svg id="Layer_1" data-name="Layer 1" xmlns="http://www.w3.org/2000/svg" viewBox="0 0 12 12"><defs><style>.cls-1{fill:#fff;}</style></defs><title>loader</title><path class="cls-1" d="M6,11.25A5.25,5.25,0,1,1,11.25,6,5.25,5.25,0,0,1,6,11.25ZM6,12A6,6,0,1,0,0,6,6,6,0,0,0,6,12Z"/><path class="cls-1" d="M2.25,5.62H4.13v.75H2.25Zm5.63,0H9.75v.75H7.88ZM5.63,7.88h.75V9.75H5.63Zm0-5.63h.75V4.12H5.63ZM3.08,3.61l.53-.53L4.94,4.41l-.53.53ZM8.92,8.39l-.53.53L7.06,7.59l.53-.53ZM4.41,7.06l.53.53L3.61,8.92l-.53-.53ZM7.06,4.41,8.39,3.08l.53.53L7.59,4.94Z"/></svg>